<svg width="50" height="50" viewBox="0 0 50 50" fill="none" xmlns="http://www.w3.org/2000/svg">
<path d="M23.5417 13.125C23.125 13.5417 22.9167 15.4688 22.9167 18.3333V22.8646L18.1771 23.0208C14.2708 23.125 13.2812 23.3333 12.8125 24.0625C12.3958 24.7396 12.3958 25.2604 12.8125 25.8854C13.2812 26.6667 14.2708 26.875 18.125 26.9792L22.8646 27.1354L23.0208 31.875C23.125 35.7292 23.3333 36.7188 24.1146 37.1875C24.7396 37.6042 25.2604 37.6042 25.9375 37.1875C26.6667 36.7188 26.875 35.7292 26.9792 31.875L27.1354 27.1354L31.875 26.9792C35.7292 26.875 36.7188 26.6667 37.1875 25.8854C37.6042 25.2604 37.6042 24.7396 37.1875 24.0625C36.7188 23.3333 35.7292 23.125 31.8229 23.0208L27.0833 22.8646V18.3333C27.0833 13.6979 26.6667 12.5 25 12.5C24.5312 12.5 23.9062 12.7604 23.5417 13.125Z" fill="#304B74"/>
</svg>
