<svg width="26" height="26" viewBox="0 0 26 26" fill="none" xmlns="http://www.w3.org/2000/svg">
<g clip-path="url(#clip0_5_103)">
<path d="M1.63516 6.48984L2.20898 7.05859L4.35195 4.91562L6.5 2.76758L6.5 12.8375C6.5 23.8875 6.48477 23.3187 6.79961 23.9941C7.30234 25.0656 8.25703 25.7156 9.64844 25.9238C9.98359 25.9746 10.5676 26 11.5629 26H13V25.1875V24.375H11.5883C10.0547 24.3699 9.59258 24.3191 9.12539 24.1059C8.76484 23.9434 8.48555 23.6844 8.29766 23.3492L8.15039 23.0801L8.13516 12.9238L8.125 2.76758L10.273 4.91562L12.416 7.05859L12.9898 6.48476L13.5586 5.91601L10.6234 2.98594C7.44453 -0.19297 7.59688 -0.0609398 7.11953 0.0253887C6.95195 0.0558586 6.58633 0.401171 3.99648 2.98594L1.06641 5.91601L1.63516 6.48984Z" fill="white"/>
<path d="M15.3766 23.0141C18.5555 26.193 18.4031 26.0609 18.8805 25.9746C19.048 25.9441 19.4137 25.5988 21.9984 23.0141L24.9336 20.084L24.3648 19.5152L23.791 18.9414L21.648 21.0844L19.5 23.2324L19.5 13.127C19.5 1.86875 19.5254 2.66601 19.1395 1.88398C18.7738 1.14258 18.1137 0.589062 17.2148 0.274218C16.5902 0.0558586 16.0113 -1.90735e-06 14.432 -1.90735e-06H13V0.812498V1.625H14.4066C16.0012 1.63008 16.4379 1.68086 16.9406 1.92969C17.3418 2.12265 17.6719 2.4832 17.7887 2.84375C17.8699 3.0875 17.875 3.87969 17.875 13.1727L17.875 23.2324L15.727 21.0844L13.584 18.9414L13.0102 19.5152L12.4414 20.084L15.3766 23.0141Z" fill="white"/>
</g>
<defs>
<clipPath id="clip0_5_103">
<rect width="26" height="26" fill="white" transform="translate(0 26) rotate(-90)"/>
</clipPath>
</defs>
</svg>
