<?xml version="1.0" standalone="no"?>
<!DOCTYPE svg PUBLIC "-//W3C//DTD SVG 20010904//EN"
 "http://www.w3.org/TR/2001/REC-SVG-20010904/DTD/svg10.dtd">
<svg version="1.0" xmlns="http://www.w3.org/2000/svg"
 width="512.000000pt" height="512.000000pt" viewBox="0 0 512.000000 512.000000"
 preserveAspectRatio="xMidYMid meet">

<g transform="translate(0.000000,512.000000) scale(0.100000,-0.100000)"
fill="#000000" stroke="none">
<path d="M1620 4674 c-63 -28 -108 -86 -125 -161 l-7 -33 -236 0 c-250 0 -296
-6 -381 -50 -62 -31 -142 -110 -176 -171 -58 -107 -55 -13 -55 -1804 0 -1805
-3 -1712 57 -1815 41 -69 112 -134 189 -171 l69 -34 1605 0 1605 0 70 34 c76
38 148 103 188 171 60 103 57 11 57 1807 0 1178 -3 1657 -11 1695 -33 153
-158 283 -313 324 -36 10 -119 14 -287 14 l-237 0 -11 43 c-15 60 -44 102 -92
134 l-43 28 -915 2 c-802 2 -920 0 -951 -13z m-130 -834 l0 -210 1070 0 1070
0 0 210 0 210 210 0 210 0 0 -1600 0 -1600 -1490 0 -1490 0 0 1600 0 1600 210
0 210 0 0 -210z"/>
<path d="M2750 2625 l-405 -405 -190 189 -190 190 -148 -142 c-81 -78 -147
-147 -147 -152 0 -6 152 -162 338 -348 l337 -337 555 555 555 555 -150 150
-150 150 -405 -405z"/>
</g>
</svg>
