<?xml version="1.0" standalone="no"?>
<!DOCTYPE svg PUBLIC "-//W3C//DTD SVG 20010904//EN"
 "http://www.w3.org/TR/2001/REC-SVG-20010904/DTD/svg10.dtd">
<svg version="1.0" xmlns="http://www.w3.org/2000/svg"
 width="90.000000pt" height="90.000000pt" viewBox="0 0 90.000000 90.000000"
 preserveAspectRatio="xMidYMid meet">

<g transform="translate(0.000000,90.000000) scale(0.100000,-0.100000)"
fill="#7A94AD" stroke="none">
<path d="M363 795 c-6 -11 -33 -15 -108 -17 -99 -3 -100 -3 -100 -28 l0 -25
295 0 295 0 0 25 c0 25 -1 25 -100 28 -75 2 -102 6 -108 17 -12 21 -162 21
-174 0z"/>
<path d="M180 410 c0 -237 1 -251 20 -270 19 -19 33 -20 250 -20 217 0 231 1
250 20 19 19 20 33 20 270 l0 250 -270 0 -270 0 0 -250z"/>
</g>
</svg>
