<svg width="27" height="27" viewBox="0 0 27 27" fill="none" xmlns="http://www.w3.org/2000/svg">
<g clip-path="url(#clip0_5_95)">
<path d="M2.2835 0.0790958C1.22881 0.305853 0.300684 1.24452 0.0791992 2.30449C-0.0368164 2.84238 -0.0368164 24.1576 0.0791992 24.6955C0.305957 25.766 1.23408 26.6941 2.30459 26.9209C2.8583 27.0369 16.005 27.0369 16.5007 26.9209C17.5712 26.6678 18.4202 25.8293 18.6944 24.7588C18.763 24.4951 18.7735 23.8676 18.7735 20.6297V16.8117L18.5942 16.6324C18.4466 16.4848 18.3728 16.4531 18.1935 16.4531C18.0142 16.4531 17.9403 16.4848 17.7927 16.6324L17.6134 16.8117V20.5084C17.6134 22.9658 17.5923 24.2894 17.5554 24.4687C17.4815 24.8221 17.1546 25.2967 16.8382 25.5076C16.3161 25.8557 16.6483 25.8451 9.24971 25.8293C1.56104 25.8135 2.29404 25.8662 1.70869 25.2861C1.12861 24.7166 1.18662 26.0086 1.18662 13.5C1.18662 0.9914 1.12861 2.28339 1.70869 1.71386C2.29404 1.13378 1.56104 1.18652 9.24971 1.1707C15.1665 1.16015 15.9786 1.16542 16.2634 1.23925C16.8118 1.38163 17.2021 1.70331 17.4499 2.21484L17.587 2.50488L17.6134 6.37031L17.6397 10.241L17.8138 10.3939C18.0616 10.6207 18.3517 10.6101 18.5942 10.3676L18.7735 10.1883V6.37031C18.7735 2.16738 18.7788 2.2623 18.4413 1.58203C18.2146 1.11796 17.645 0.553705 17.1862 0.33222C16.4849 -0.0158272 16.854 -5.72205e-06 9.38682 0.00526619C3.89717 0.00526619 2.54717 0.0210876 2.2835 0.0790958Z" fill="white"/>
<path d="M22.6125 9.4711C22.4332 9.56602 22.3066 9.79805 22.3066 10.0301C22.3066 10.183 22.4438 10.3412 23.6619 11.5594L25.0172 12.9199H16.2211H7.425L7.2457 13.0992C7.09805 13.2469 7.06641 13.3207 7.06641 13.5C7.06641 13.6793 7.09805 13.7531 7.2457 13.9008L7.425 14.0801H16.2211H25.0172L23.6619 15.4406C22.4438 16.6588 22.3066 16.817 22.3066 16.9699C22.3066 17.2072 22.4332 17.4393 22.623 17.5342C22.8129 17.6344 22.9553 17.6344 23.1398 17.5395C23.2189 17.4973 24.1207 16.6219 25.1438 15.5988L27 13.732V13.5V13.268L25.1438 11.4012C24.1207 10.3781 23.2189 9.50274 23.1398 9.46055C22.9605 9.36563 22.7971 9.3709 22.6125 9.4711Z" fill="white"/>
</g>
<defs>
<clipPath id="clip0_5_95">
<rect width="27" height="27" fill="white"/>
</clipPath>
</defs>
</svg>
